<?xml version="1.0" encoding="UTF-8"?>
<svg width="600px" height="600px" viewBox="0 0 600 600" version="1.1" xmlns="http://www.w3.org/2000/svg" xmlns:xlink="http://www.w3.org/1999/xlink">
    <title>logo</title>
    <g id="logo" stroke="none" stroke-width="1" fill="none" fill-rule="evenodd">
        <g id="layers">
            <path d="M300,0 C134.333333,0 0,134.333333 0,300 C0,465.683333 134.333333,600 300,600 C465.666667,600 600,465.683333 600,300 C600,134.333333 465.666667,0 300,0 Z" id="Path" fill="#1A1919"></path>
            <path d="M403.066667,411.916667 L337.95,411.916667 L337.95,276.5 C337.95,267.433333 337.95,259.683333 334.5,252.766667 C329.75,243.283333 319.85,234.233333 303.466667,234.233333 C289.65,234.233333 277.15,240.7 270.25,251.05 C266.366667,256.65 262.5,267.433333 262.5,284.25 L262.5,411.916667 L198.233333,411.916667 L198.233333,232.933333 C198.233333,232.083333 198.233333,208.35 196.933333,193.266667 L258.183333,193.266667 L259.9,226.033333 C265.933333,216.133333 283.183333,188.083333 330.633333,188.083333 C373.316667,188.083333 391.433333,213.966667 397.033333,229.066667 C401.783333,242.416667 403.066667,253.65 403.066667,294.166667 L403.066667,411.916667 L403.066667,411.916667 Z" id="Path" fill="#FFFFFF"></path>
        </g>
    </g>
</svg>