<?xml version="1.0" encoding="UTF-8"?>
<svg width="115px" height="37px" viewBox="0 0 115 37" version="1.1" xmlns="http://www.w3.org/2000/svg" xmlns:xlink="http://www.w3.org/1999/xlink">
    <title>aha-logo-k</title>
    <defs>
        <polygon id="path-1" points="0.0553846154 0.291692308 31.8812308 0.291692308 31.8812308 9.37107692 0.0553846154 9.37107692"></polygon>
    </defs>
    <g id="Home-page" stroke="none" stroke-width="1" fill="none" fill-rule="evenodd">
        <g id="Desktop" transform="translate(-570.000000, -2903.000000)">
            <g id="Clients" transform="translate(44.000000, 2784.000000)">
                <g id="logos" transform="translate(0.000000, 72.000000)">
                    <g id="AHA" transform="translate(480.000000, 0.000000)">
                        <g id="aha-logo-k" transform="translate(46.000000, 47.000000)">
                            <path d="M25.0504615,14.196 C25.0532308,13.5092308 24.8815385,13.4603077 24.6276923,13.4566154 L24.2307692,13.4566154 L24.2307692,13.248 C24.8132308,13.0384615 25.704,12.7993846 26.2836923,12.5353756 L26.3418462,12.5612308 L26.3418462,13.6218462 L26.3667692,13.6218462 C26.7295385,12.7735385 27.2833846,12.5409231 27.6950769,12.5353756 C28.1547692,12.5335385 28.4455385,12.8141538 28.4455385,13.248 C28.4455385,13.5784615 28.212,13.8987692 27.8713846,13.8950769 C27.456,13.8895385 27.4596923,13.4215385 27.1772308,13.4252308 C26.724,13.4252308 26.3686154,14.0335385 26.3713846,14.5587692 L26.3713846,17.3529231 C26.3713846,18.2621538 26.7756923,18.3156923 27.3784615,18.3406154 L27.3784615,18.5963077 L24.2104615,18.5963077 L24.2104615,18.3406154 C24.8603077,18.2086154 25.0504615,18.1698462 25.0504615,17.4332308 L25.0504615,14.196" id="Fill-1" fill="#FFFFFF"></path>
                            <path d="M41.4203077,15.1301538 C39.6304615,15.7883077 39.504,16.4713846 39.504,16.9172308 L39.504,16.9430769 C39.504,17.5633846 39.8418462,17.9713846 40.284,17.9713846 C40.5470769,17.9713846 40.8701538,17.8255385 40.9735385,17.7553846 C41.2938462,17.5283077 41.4203077,17.2836923 41.4203077,16.8701538 L41.4203077,15.1301538 Z M43.8710769,18.3396923 C44.4996923,18.3378462 44.928,18.0609231 44.928,17.3243077 L44.928,14.1313846 C44.928,13.4704615 44.7803077,13.3532308 44.4175385,13.3504615 C44.2735385,13.3476923 44.1646154,13.3504615 44.1646154,13.3504615 L44.1646154,13.1178462 C44.7009231,12.9544615 45.5556923,12.744 46.1021538,12.5252308 L46.1815385,12.5529231 L46.1815385,13.5350769 C46.7667692,12.9304615 47.3076923,12.5270769 48.0424615,12.5243051 C48.5981538,12.5233846 49.4981538,12.768 49.4981538,14.3889231 L49.4981538,17.4618462 C49.4981538,18.0803077 49.6366154,18.276 50.2227692,18.3286154 L50.2227692,18.5843077 L47.4323077,18.5843077 L47.4323077,18.3286154 C47.868,18.2907692 48.1744615,18.2344615 48.1744615,17.2338462 L48.18,14.5264615 C48.18,13.7243077 48.096,13.248 47.4710769,13.248 C47.1073846,13.2498462 46.7187692,13.5193846 46.2498462,14.0012308 L46.2498462,17.5043077 C46.2498462,18.0378462 46.5249231,18.3064615 47.0316923,18.3286154 L47.0316923,18.5889231 C47.0316923,18.5889231 44.1876923,18.5916923 43.3938462,18.5889231 C42.3092308,18.5852308 41.7443077,18.6018462 41.448,17.7932308 C40.9107692,18.2972308 40.5184615,18.7301538 39.4587692,18.7338565 C38.7332308,18.7366154 38.0898462,18.1827692 38.0749636,17.3003077 C38.0603077,15.9110769 39.4910769,15.5981538 41.4203077,14.7572308 L41.4203077,13.9523077 C41.4203077,13.0033846 40.8535385,12.8612308 40.4824615,12.8584615 C40.1003077,12.8575385 39.6563077,13.1049231 39.6683077,13.5276923 C39.6738462,13.7224615 39.7504615,13.86 39.7504615,14.0501538 C39.7467692,14.3732308 39.5049231,14.6086154 39.0858462,14.6058462 C38.5966154,14.6030769 38.4323077,14.1886154 38.4323077,13.9689231 C38.4323077,13.2636923 39.2206154,12.5409231 40.548,12.5436923 C42.4744615,12.5464615 42.7643077,13.7741538 42.7643077,14.6436923 L42.7643077,17.2116923 C42.7643077,18.0830769 43.2876923,18.3433846 43.8710769,18.3396923 L43.8710769,18.3396923 Z" id="Fill-2" fill="#FFFFFF"></path>
                            <g id="Group-6" transform="translate(0.000000, 9.230769)">
                                <mask id="mask-2" fill="white">
                                    <use xlink:href="#path-1"></use>
                                </mask>
                                <g id="Clip-4"></g>
                                <path d="M28.7473846,9.11261538 C29.4775385,9.07292308 29.6824615,8.99538462 29.6824615,7.96707692 L29.6824615,4.96707692 C29.6824615,4.37353846 29.5283077,4.23046154 29.2403077,4.22769231 C29.1166154,4.22584615 28.7953846,4.23046154 28.7953846,4.23046154 L28.7953846,4.03292308 C29.4083077,3.80953846 30.3415385,3.55753846 30.9590769,3.30830769 L31.0061538,3.348 L31.0061538,7.96707692 C31.0061538,8.83569231 31.0587692,9.06 31.8812308,9.11261538 L31.8812308,9.36738462 L28.7473846,9.36738462 L28.7473846,9.11261538 Z M30.2298462,0.291692308 C30.6692308,0.292615385 30.9470769,0.641538462 30.9415385,1.06523077 C30.9415385,1.50923077 30.6618462,1.83969231 30.2298462,1.83692308 C29.7655385,1.83692308 29.5421538,1.43907692 29.5421538,1.06523077 C29.5421538,0.687692308 29.7904615,0.291692308 30.2298462,0.291692308 L30.2298462,0.291692308 Z" id="Fill-3" fill="#FFFFFF" mask="url(#mask-2)"></path>
                                <path d="M5.08615385,5.98892308 L3.91476923,2.66307692 L2.66676923,5.98892308 L5.08615385,5.98892308 Z M8.54861538,9.11723077 C8.98246154,9.11815385 9.33138462,8.94738462 9.33323077,8.36584615 L9.33323077,4.91907692 C9.33138462,4.18615385 9.10523077,4.09661538 8.90861538,4.09107692 C8.75169231,4.08553846 8.62338462,4.11323077 8.53661538,4.12892308 L8.53661538,3.90553846 C9.096,3.73384615 9.95076923,3.53538462 10.4935385,3.312 L10.5756923,3.33969231 L10.5756923,4.27015385 C11.1498462,3.71169231 11.6473846,3.31015385 12.4043077,3.312 C13.4132308,3.31569231 13.7132308,3.85476923 13.8673846,4.36153846 C14.3621538,3.81969231 14.868,3.31015385 15.7089231,3.312 C16.7575385,3.31569231 17.3316923,3.89169231 17.3363077,5.148 L17.3363077,8.31230769 C17.3363077,8.60307692 17.3224615,8.99815385 17.8412308,9.09138462 L18.1504615,9.11723077 L18.1504615,9.37015385 L15.2427692,9.37015385 L15.2427692,9.11723077 C15.8381538,9.03784615 16.0264615,9.01107692 16.0264615,8.17015385 L16.0264615,5.28830769 C16.0292308,4.43630769 15.8547692,4.00061538 15.2021538,3.96830769 C14.6483077,3.93969231 14.2578462,4.35230769 14.0003077,4.8 L14.0003077,8.06307692 C14.0003077,9.06369231 14.3704615,9.10338462 14.8541538,9.11723077 L14.8541538,9.37015385 L11.8726154,9.37015385 L11.8726154,9.11723077 C12.4070769,9.07753846 12.6793846,9.03784615 12.6793846,8.18307692 L12.6793846,5.18215385 C12.6793846,4.31261538 12.42,4.008 11.9030769,3.96830769 C11.1581538,3.91015385 10.7695385,4.61169231 10.6532308,4.77507692 L10.6532308,8.37507692 C10.6532308,9.02123077 11.0464615,9.10338462 11.46,9.11723077 L11.46,9.37015385 L5.11292308,9.37107692 L5.11292308,9.12 C5.69446154,9.12 6.09876923,8.94276923 5.83476923,8.13692308 C5.76830769,7.93846154 5.28830769,6.528 5.28830769,6.528 L2.46184615,6.528 C2.46184615,6.528 2.19507692,7.28861538 1.94676923,7.98646154 C1.68646154,8.72215385 1.96246154,9.11538462 2.63076923,9.12 L2.63076923,9.37107692 L0,9.37015385 L0,9.12092308 C0.552,9.12461538 0.884307692,8.79323077 1.21569231,7.95138462 C1.61261538,6.94430769 4.10769231,0.496615385 4.10769231,0.496615385 L4.73630769,0.496615385 L7.49538462,7.91907692 C7.87292308,8.88 8.052,9.11538462 8.54861538,9.11723077 L8.54861538,9.11723077 Z" id="Fill-5" fill="#FFFFFF" mask="url(#mask-2)"></path>
                            </g>
                            <path d="M23.6196923,16.9993846 C23.3058462,17.7064615 22.7113846,18.7264615 21.2741538,18.7236979 C19.7778462,18.7227692 18.5418462,17.6926154 18.5372142,15.6609231 C18.5316923,13.5424615 19.9181538,12.5353846 21.2916923,12.5344335 C22.7224615,12.5289231 23.5818462,13.344 23.6649231,15.0572308 L19.9596923,15.0572308 C19.9670769,17.1692308 20.8209231,17.8116923 21.7098462,17.8144615 C22.6301538,17.8172308 23.1027692,17.2763077 23.3972308,16.7870769 L23.6196923,16.9993846 Z M22.1575385,14.6363077 C22.1390769,13.9938462 22.1067692,12.9489231 21.1329231,12.9516868 C20.3381538,12.9553846 20.0252308,13.74 19.9966154,14.6363077 L22.1575385,14.6363077 L22.1575385,14.6363077 Z" id="Fill-7" fill="#FFFFFF"></path>
                            <path d="M37.4141538,17.0076923 C37.1058462,17.8163077 36.2704615,18.7218462 34.9504615,18.7200028 C33.7310769,18.7153846 32.3409231,17.8116923 32.3362633,15.6553846 C32.3270769,13.7233846 33.7596923,12.5215385 35.2763077,12.5279741 C36.4052308,12.5335385 37.0458462,13.0993846 37.0403077,13.7446154 C37.0366154,14.1969231 36.8178462,14.5163077 36.3387692,14.5227692 C35.9566154,14.5273846 35.6843077,14.2643077 35.7027692,13.7538462 C35.7138462,13.4796923 35.8569231,12.9166154 35.076,12.9101538 C34.4621538,12.9064615 33.8021538,13.4123077 33.8021538,15.2547692 C33.7947692,16.7695385 34.4676923,17.7876923 35.5135385,17.7969231 C36.2889231,17.8024615 36.7864615,17.4461538 37.1907692,16.776 L37.4141538,17.0076923" id="Fill-8" fill="#FFFFFF"></path>
                            <path d="M81.1430769,13.0827692 L79.9449231,13.0827692 L79.9449231,16.8516923 C79.9449231,17.2569231 79.9449231,18.0369231 80.5523077,18.0369231 C80.9316923,18.0369231 81.1430769,17.7470769 81.2787692,17.5763077 L81.4310769,17.7193846 C81.2344615,18.2852308 80.7341538,18.7227692 80.0436923,18.7218476 C79.1686154,18.7163077 78.6249231,18.2852308 78.6267692,17.1618462 L78.6267692,13.0827692 L78.1089231,13.0827692 C78.0858462,13.0707692 78.0664615,13.032 78.0664615,12.9913846 C78.0664615,12.8326154 78.324,12.7523077 78.5898462,12.4633846 C79.0384615,11.9501538 79.4261538,11.6593846 79.8636923,10.9633846 C79.9449231,10.9633846 79.9449231,11.0298462 79.9449231,11.1332308 L79.9449231,12.6618462 L81.1430769,12.6618462 L81.1430769,13.0827692" id="Fill-9" fill="#FFFFFF"></path>
                            <path d="M71.0695385,15.1606154 C69.3470769,15.7993846 69.1587692,16.4750769 69.1587692,16.9227692 L69.1587692,16.9495385 C69.1587692,17.5689231 69.4993846,17.9787692 69.9378462,17.9787692 C70.2729231,17.9787692 70.536,17.8541538 70.6846154,17.7193846 C70.9495385,17.4876923 71.0695385,17.2116923 71.0695385,16.764 L71.0695385,15.1606154 Z M69.2003077,18.7680063 C68.4812308,18.7652308 67.7196923,18.2483077 67.7187621,17.364 C67.7150769,15.9341538 69.1430769,15.6184615 71.0769231,14.7766154 L71.0769231,13.9615385 C71.0667692,13.0523077 70.5563077,12.8898462 70.1593846,12.8916923 C69.8030769,12.8926154 69.3618462,13.1012308 69.3470769,13.5267692 C69.3470769,13.7215385 69.4273846,13.992 69.4273846,14.1110769 C69.4273846,14.3861538 69.1052308,14.6473846 68.7433846,14.64 C68.268,14.6316923 68.0852308,14.208 68.0815385,13.9966154 C68.0787692,13.3347692 68.7710769,12.5723077 70.2230769,12.576 C71.5107692,12.5796923 72.3886154,12.9886154 72.4043077,14.4858462 C72.4043077,14.4858462 72.4024615,16.7575385 72.4043077,17.2661538 C72.4043077,18.0581538 72.7283077,18.3286154 73.3615385,18.3286154 C74.1433846,18.3286154 74.3972308,18.0221538 74.3981538,17.2052308 L74.3981538,14.1950769 C74.3981538,13.5516923 74.2283077,13.4510769 73.9836923,13.4510769 C73.8184615,13.4529231 73.5830769,13.4510769 73.5830769,13.4510769 L73.5830769,13.2470769 C74.1636923,13.0347692 75.0544615,12.804 75.6323077,12.5409231 L75.6950769,12.5676923 L75.6950769,13.6246154 L75.7163077,13.6246154 C76.0384615,12.8492308 76.5793846,12.5538462 77.0076923,12.5427692 C77.4332308,12.5316923 77.7913846,12.7301538 77.7895456,13.2323077 C77.7895456,13.5932308 77.5476923,13.8830769 77.2606154,13.884 C76.7806154,13.884 76.8424615,13.4141538 76.4833846,13.416 C76.1270769,13.416 75.72,14.0076923 75.72,14.4295385 L75.72,17.3003077 C75.72,18.2095385 76.2193846,18.3267692 76.7243077,18.3470769 L76.7243077,18.5963077 L72.7283077,18.5963077 C72.2723077,18.5981538 71.3436923,18.5926154 71.1646154,17.7913846 C70.5701538,18.3655385 70.0172308,18.7698462 69.2003077,18.7680063 L69.2003077,18.7680063 Z" id="Fill-10" fill="#FFFFFF"></path>
                            <path d="M53.1221538,18.3581538 C54.1172308,18.3064615 54.1615385,18.0166154 54.1615385,17.028 L54.1615385,11.3252308 C54.1615385,10.3504615 53.9981538,10.2175385 53.1221538,10.1381538 L53.1221538,9.88707692 L56.8264615,9.88707692 L56.8264615,10.1381538 C55.9255385,10.2175385 55.7861538,10.3892308 55.7861538,11.3252308 L55.7861538,13.8803077 L59.0926154,13.8803077 L59.0926154,11.3252308 C59.0926154,10.3504615 58.9273846,10.2175385 58.0504615,10.1381538 L58.0504615,9.88707692 L61.6421538,9.88707692 L61.6421538,10.1381538 C60.744,10.2175385 60.6009231,10.3892308 60.6009231,11.3252308 L60.6009231,17.1729231 C60.6009231,18.0415385 60.7172308,18.2916923 61.6421538,18.3581538 L61.6421538,18.6092308 L58.0504615,18.6092308 L58.0504615,18.3581538 C59.0446154,18.3064615 59.0926154,18.0166154 59.0926154,17.028 L59.0926154,14.46 L55.7861538,14.46 L55.7861538,17.1729231 C55.7861538,18.0415385 55.9006154,18.2916923 56.8264615,18.3581538 L56.8264615,18.6092308 L53.1221538,18.6092308 L53.1221538,18.3581538" id="Fill-11" fill="#FFFFFF"></path>
                            <path d="M67.0458462,17.0021538 C66.7273846,17.7101538 66.1338462,18.7301538 64.6966154,18.7292314 C63.1984615,18.7264615 61.9661538,17.6944615 61.9615311,15.6655385 C61.9578462,13.5470769 63.3396923,12.54 64.716,12.5381413 C66.1430769,12.5344615 67.0043077,13.3476923 67.0846154,15.06 L63.3904615,15.06 C63.3941538,17.1710769 64.2406154,17.8172308 65.1323077,17.8181538 C66.0516923,17.8218462 66.5289231,17.2809231 66.8196923,16.7907692 L67.0458462,17.0021538 Z M65.5809231,14.6381538 C65.5615385,13.9984615 65.5310769,12.9507692 64.5563077,12.9553694 C63.7624615,12.9581538 63.4513846,13.7436923 63.4218462,14.6381538 L65.5809231,14.6381538 L65.5809231,14.6381538 Z" id="Fill-12" fill="#FFFFFF"></path>
                            <path d="M35.0658462,26.7184615 C34.7732308,25.3855385 34.128,25.116 33.6046154,25.1132308 C32.9676923,25.1076923 32.6667692,25.4492308 32.6667692,25.8978462 C32.6630769,26.3787692 33.0193846,26.6538462 33.4836923,26.9196923 C33.9387692,27.1763077 34.1243077,27.2833846 34.5516923,27.5344615 C35.2449231,27.9396923 35.6003077,28.5369231 35.5596923,29.2846154 C35.5052308,30.5196923 34.5424615,30.9867692 33.5316923,30.9867692 C32.7803077,30.9867692 32.4876923,30.6941538 32.1563077,30.708 C32.0150769,30.708 31.9670769,30.7883077 31.8978462,30.9073846 L31.6827692,30.9073846 L31.6827692,28.8507692 L31.9163077,28.8507692 C32.2929231,29.988 32.6298462,30.6341538 33.492,30.6673846 C34.1667692,30.6969231 34.5646154,30.3138462 34.6089231,29.8901538 C34.6467692,29.4904615 34.4649231,29.1387692 33.9258462,28.8230769 C33.5556923,28.608 33.4273846,28.5369231 32.9206154,28.2415385 C32.2929231,27.8778462 31.7307692,27.3341538 31.7307692,26.4027692 C31.7307692,25.6347692 32.2606154,24.7956923 33.6323077,24.7956923 C34.2969231,24.7956923 34.5830769,25.0873846 34.848,25.0873846 C34.9883077,25.0864615 35.0298462,24.9904615 35.0529231,24.9138462 L35.2384615,24.9138462 L35.2855385,26.7184615 L35.0658462,26.7184615" id="Fill-13" fill="#FFFFFF"></path>
                            <path d="M46.5701538,27.864 C46.5701538,29.4996923 45.6341538,30.9996923 43.8553846,30.9849231 C42.2529231,30.9710769 41.1046154,29.7572308 41.1184615,27.864 C41.1304615,26.1055385 42.1901538,24.7938462 43.8350769,24.7938462 C45.2307692,24.7938462 46.5701538,25.8867692 46.5701538,27.864 M45.1661538,27.8704615 C45.1735385,26.2356923 44.7913846,25.1150769 43.8516923,25.1205949 C42.8418462,25.1243077 42.516,26.3261538 42.5206154,27.8704615 C42.5326154,29.1729231 42.7338462,30.6563077 43.8516923,30.6572308 C44.9436923,30.6572308 45.1523077,29.2172308 45.1661538,27.8704615" id="Fill-14" fill="#FFFFFF"></path>
                            <path d="M52.6753846,30.5935385 C53.4064615,30.5538462 53.6113846,30.4753846 53.6113846,29.448 L53.6113846,26.448 C53.6058462,25.8526154 53.4563077,25.7104615 53.1673846,25.7076923 C53.0427692,25.7076923 52.7233846,25.7113846 52.7233846,25.7113846 L52.7233846,25.5129231 C53.34,25.2904615 54.2695385,25.0403077 54.8870769,24.7901538 L54.9323077,24.8289231 L54.9323077,29.448 C54.9323077,30.3175385 54.9923077,30.5418462 55.8110769,30.5935385 L55.8110769,30.8483077 L52.6753846,30.8483077 L52.6753846,30.5935385 Z M54.156,21.7735321 C54.5981538,21.7735321 54.8704615,22.1233846 54.8704615,22.5452308 C54.8704615,22.992 54.5916923,23.3196923 54.156,23.3178539 C53.6916923,23.3178539 53.4692308,22.92 53.4692308,22.5452308 C53.4692308,22.1695385 53.7221538,21.7716923 54.156,21.7735321 L54.156,21.7735321 Z" id="Fill-15" fill="#FFFFFF"></path>
                            <path d="M61.8747692,30.3230769 C61.5904615,30.7569231 61.1003077,30.9821538 60.6387692,30.9821538 C60.096,30.9821538 59.724,30.5289231 59.6963077,30.0193846 C59.2901538,30.4781538 58.6375385,30.9821538 57.864,30.9821538 C56.9907692,30.9821538 56.3086154,30.4236923 56.3086154,29.5430769 C56.3104615,28.1224615 57.7255385,27.8464615 59.6556923,27.0009231 L59.6556923,26.2024615 C59.6556923,25.2507692 59.1027692,25.1076923 58.7418462,25.1076923 C58.3476923,25.1076923 57.9304615,25.344 57.9304615,25.7566154 C57.9304615,25.9504615 58.0116923,26.1553846 58.0116923,26.2744615 C58.008,26.6556923 57.6692308,26.8670769 57.3203077,26.8670769 C56.9538462,26.8716923 56.6584615,26.5707692 56.664,26.1978462 C56.664,25.5018462 57.4218462,24.7910769 58.764,24.7910769 C60.4892308,24.7910769 61.0006154,25.5516923 61.0006154,26.7295385 L61.0006154,29.5255385 C61.0006154,29.9390769 61.0846154,30.2307692 61.3975385,30.2307692 C61.6347692,30.2316923 61.7584615,30.1043077 61.8747692,29.9806154 L61.8747692,30.3230769 Z M59.6556923,27.3793846 C57.8649231,28.0366154 57.7375385,28.7150769 57.7375385,29.1636923 L57.7375385,29.1904615 C57.7375385,29.8098462 58.0818462,30.1744615 58.5249231,30.1975385 C58.7898462,30.2104615 59.0566154,30.0932308 59.1618462,30.0258462 C59.4304615,29.8421538 59.6556923,29.5873846 59.6556923,29.1729231 L59.6556923,27.3793846 L59.6556923,27.3793846 Z" id="Fill-16" fill="#FFFFFF"></path>
                            <path d="M67.9541538,24.7892308 L68.0012308,24.828 L68.0012308,29.4470769 C68.0012308,30.3156923 68.0603077,30.54 68.8809231,30.5916923 L68.8809231,30.8464615 L65.7581538,30.8464615 L65.7581538,30.5916923 C66.4975385,30.5529231 66.6830769,30.4744615 66.6830769,29.4470769 L66.6830769,26.2209231 C66.6830769,25.6181538 66.4338462,25.3412308 65.796,25.3412308 L64.0052308,25.3412308 L64.0052308,29.1073846 C64.0052308,29.5181538 64.0052308,30.2935385 64.6070769,30.2935385 C64.9873846,30.2935385 65.1470769,30.0036923 65.2772308,29.8310769 L65.4295385,29.9769231 C65.1590769,30.6055385 64.692,30.9738462 64.0467692,30.9785052 C63.3184615,30.9830769 62.6824615,30.6230769 62.6824615,29.3049231 L62.6824615,25.3412308 L62.0556923,25.3412308 C62.0307692,25.3273846 62.0086154,25.2895385 62.0086154,25.248 C62.0086154,25.0910769 62.2698462,25.0126154 62.5283077,24.7227692 C62.9815385,24.2067692 63.4283077,23.9187692 63.8630769,23.2190769 C63.9489231,23.2190769 64.0052308,23.2864615 64.0052308,23.3926154 L64.0052308,24.9193846 C64.0052308,24.9193846 65.7710769,24.9184615 66.3923077,24.9193846 C67.104,24.9212308 67.9541538,24.7892308 67.9541538,24.7892308 M67.2147692,21.7716923 C67.6292308,21.7716923 67.9310769,22.1030769 67.9310769,22.5443077 C67.9310769,22.9855385 67.6163077,23.316 67.2147692,23.3169357 C66.7384615,23.3196923 66.5233846,22.8664615 66.5233846,22.5443077 C66.528,22.2036923 66.7504615,21.7716923 67.2147692,21.7716923" id="Fill-17" fill="#FFFFFF"></path>
                            <path d="M67.9541538,24.7892308 L68.0012308,24.828 L68.0012308,29.4470769 C68.0012308,30.3156923 68.0603077,30.54 68.8809231,30.5916923 L68.8809231,30.8464615 L65.7581538,30.8464615 L65.7581538,30.5916923 C66.4975385,30.5529231 66.6830769,30.4744615 66.6830769,29.4470769 L66.6830769,26.2209231 C66.6830769,25.6181538 66.4338462,25.3412308 65.796,25.3412308 L64.0052308,25.3412308 L64.0052308,29.1073846 C64.0052308,29.5181538 64.0052308,30.2935385 64.6070769,30.2935385 C64.9873846,30.2935385 65.1470769,30.0036923 65.2772308,29.8310769 L65.4295385,29.9769231 C65.1590769,30.6055385 64.692,30.9738462 64.0467692,30.9785052 C63.3184615,30.9830769 62.6824615,30.6230769 62.6824615,29.3049231 L62.6824615,25.3412308 L62.0556923,25.3412308 C62.0307692,25.3273846 62.0086154,25.2895385 62.0086154,25.248 C62.0086154,25.0910769 62.2698462,25.0126154 62.5283077,24.7227692 C62.9815385,24.2067692 63.4283077,23.9187692 63.8630769,23.2190769 C63.9489231,23.2190769 64.0052308,23.2864615 64.0052308,23.3926154 L64.0052308,24.9193846 C64.0052308,24.9193846 65.7710769,24.9184615 66.3923077,24.9193846 C67.104,24.9212308 67.9541538,24.7892308 67.9541538,24.7892308 M67.2147692,21.7716923 C67.6292308,21.7716923 67.9310769,22.1030769 67.9310769,22.5443077 C67.9310769,22.9855385 67.6163077,23.316 67.2147692,23.3169357 C66.7384615,23.3196923 66.5233846,22.8664615 66.5233846,22.5443077 C66.528,22.2036923 66.7504615,21.7716923 67.2147692,21.7716923" id="Fill-18" fill="#FFFFFF"></path>
                            <path d="M76.1353846,26.3944615 C76.1353846,25.752 75.9886154,25.608 75.72,25.608 L75.3747692,25.608 L75.3747692,25.38 C75.9110769,25.2092308 76.7935385,25.0126154 77.3381538,24.7901538 L77.4221538,24.816 L77.4221538,25.7981538 C78.0036923,25.1926154 78.5150769,24.7689231 79.2793846,24.7901538 C80.0963077,24.8058462 80.7064615,25.3310769 80.7064615,26.5513846 L80.7064615,29.724 C80.7064615,30.3424615 80.8486154,30.54 81.4329231,30.5916923 L81.4329231,30.8464615 L78.6563077,30.8464615 L78.6563077,30.5916923 C79.0947692,30.552 79.4030769,30.4864615 79.4030769,29.4867692 L79.4030769,26.6353846 C79.4030769,25.7981538 79.1972308,25.536 78.7292308,25.512 C78.3526154,25.4944615 77.9086154,25.776 77.4590769,26.2624615 L77.4590769,29.9067692 C77.4590769,30.3424615 77.6215385,30.552 78.2390769,30.5916923 L78.2390769,30.8464615 L75.4033846,30.8464615 L75.4033846,30.5916923 C75.9581538,30.552 76.1353846,30.3830769 76.1353846,29.604 L76.1353846,26.3944615" id="Fill-19" fill="#FFFFFF"></path>
                            <path d="M39.864,26.7286154 C39.5787692,25.3938462 38.9289231,25.1215385 38.4101538,25.1206154 C37.7704615,25.1150769 37.4658462,25.4575385 37.464,25.9052308 C37.464,26.3852308 37.8193846,26.6630769 38.2883077,26.9252308 C38.7387692,27.1855385 38.9243077,27.2907692 39.3535385,27.5418462 C40.044,27.948 40.3956923,28.5433846 40.3652308,29.2929231 C40.3052308,30.5252308 39.3433846,30.9932308 38.3344615,30.9932308 C37.5803077,30.9932308 37.2886154,30.6987692 36.9563077,30.7135385 C36.8132308,30.7135385 36.7652308,30.7947692 36.6978462,30.9138462 L36.4827692,30.9138462 L36.4827692,28.86 L36.7153846,28.86 C37.0929231,29.9963077 37.428,30.6387692 38.2901538,30.6747692 C38.9649231,30.7024615 39.3618462,30.3193846 39.4061538,29.8984615 C39.4476923,29.4996923 39.2658462,29.1461538 38.7230769,28.8286154 C38.3547692,28.6135385 38.2301538,28.5433846 37.7196923,28.2470769 C37.0947692,27.8843077 36.5307692,27.3406154 36.5307692,26.4092308 C36.5289231,25.6412308 37.0587692,24.8021538 38.4332308,24.8049162 C39.0950769,24.8049162 39.3904615,25.0947692 39.6470769,25.0947692 C39.7892308,25.0929231 39.8326154,24.9978462 39.8529231,24.9212308 L40.0356923,24.9212308 L40.0855385,26.7286154 L39.864,26.7286154" id="Fill-20" fill="#FFFFFF"></path>
                            <path d="M74.7480005,27.9138462 C74.7480005,29.5476923 73.8101538,31.0476923 72.0267692,31.0329231 C70.4224615,31.02 69.2778462,29.8098462 69.288,27.9138462 C69.3036923,26.1563077 70.3652308,24.8418462 72.0064615,24.8427687 C73.4095385,24.8427687 74.7489231,25.9375385 74.7480005,27.9138462 M73.3347692,27.9184615 C73.3523077,26.2864615 72.9673846,25.1649231 72.0267692,25.1704411 C71.0123077,25.1741538 70.6846154,26.3732308 70.6938462,27.9184615 C70.7076923,29.2218462 70.9070769,30.7070787 72.0221538,30.7070787 C73.1132308,30.7089231 73.3255385,29.2670769 73.3347692,27.9184615" id="Fill-21" fill="#FFFFFF"></path>
                            <path d="M27.792,27.444 L26.6076923,24.1209231 L25.3569231,27.444 L27.792,27.444 Z M31.2636923,30.8270769 L27.8021538,30.8298462 L27.8021538,30.5769231 C28.3901538,30.5769231 28.7944615,30.3987692 28.5286154,29.5938462 C28.4603077,29.3944615 27.9784615,27.984 27.9784615,27.984 L25.1584615,27.984 C25.1584615,27.984 24.8898462,28.7427692 24.6396923,29.4433846 C24.3793846,30.1781538 24.6563077,30.5732308 25.3218462,30.5769231 L25.3218462,30.8298462 L22.6910769,30.8270769 L22.6910769,30.5769231 C23.2458462,30.5806154 23.5781538,30.2529231 23.9086154,29.4083077 C24.3064615,28.4021538 26.7950769,21.9535385 26.7950769,21.9535385 L27.4301538,21.9535385 L30.1864615,29.376 C30.5649231,30.3369231 30.7716923,30.5741538 31.2636923,30.5741538 L31.2636923,30.8270769 L31.2636923,30.8270769 Z" id="Fill-22" fill="#FFFFFF"></path>
                            <path d="M52.4427692,29.2753846 C52.1344615,30.0830769 51.2935385,30.9904615 49.9763077,30.9858637 C48.7587692,30.9821538 47.3695385,30.0784615 47.3630658,27.9221538 C47.3584615,25.9910769 48.7892308,24.7901538 50.2993846,24.7956732 C51.4347692,24.8012308 52.0716923,25.3689231 52.0670769,26.0141538 C52.0652308,26.4655385 51.8464615,26.7849231 51.3701538,26.7904615 C50.9815385,26.7950769 50.7064615,26.532 50.7258462,26.0215385 C50.7396923,25.7455385 50.8846154,25.1833846 50.1018462,25.1769231 C49.4852308,25.1732308 48.8289231,25.6781538 48.828,27.5215385 C48.8270769,29.0372308 49.4926154,30.0544615 50.5430769,30.0618462 C51.3138462,30.0701538 51.8169231,29.7138462 52.2175385,29.0409231 L52.4427692,29.2753846" id="Fill-23" fill="#FFFFFF"></path>
                            <path d="M82.2415385,29.1803077 C82.2415385,28.3375385 82.8766154,27.7006154 83.6926154,27.7006154 C84.4956923,27.7006154 85.1344615,28.3375385 85.1344615,29.1803077 C85.1344615,30.0378462 84.4956923,30.6701538 83.6926154,30.6701538 C82.8766154,30.6701538 82.2415385,30.0378462 82.2415385,29.1803077 L82.2415385,29.1803077 Z M83.6926154,30.9646154 C84.6627692,30.9646154 85.4852308,30.2132308 85.4852308,29.1803077 C85.4852308,28.1584615 84.6627692,27.408 83.6926154,27.408 C82.7123077,27.408 81.888,28.1584615 81.888,29.1803077 C81.888,30.2132308 82.7123077,30.9646154 83.6926154,30.9646154 L83.6926154,30.9646154 Z M83.3132308,29.3215385 L83.6732308,29.3215385 L84.2141538,30.2132308 L84.5621538,30.2132308 L83.9796923,29.3076923 C84.2796923,29.2689231 84.5104615,29.1110769 84.5104615,28.7427692 C84.5104615,28.3375385 84.2704615,28.1584615 83.7858462,28.1584615 L83.0030769,28.1584615 L83.0030769,30.2132308 L83.3132308,30.2132308 L83.3132308,29.3215385 Z M83.3132308,29.0575385 L83.3132308,28.4224615 L83.7406154,28.4224615 C83.9566154,28.4224615 84.1855385,28.4695385 84.1855385,28.7233846 C84.1855385,29.04 83.9510769,29.0575385 83.6861538,29.0575385 L83.3132308,29.0575385 L83.3132308,29.0575385 Z" id="Fill-24" fill="#FFFFFF"></path>
                            <path d="M102.339692,6.23353846 C101.418462,6.78276923 100.683692,8.10553846 101.038154,9.43015385 C102.288923,7.61723077 106.080923,9.25384615 107.343692,5.08984615 C106.502769,5.75630769 105.404308,5.94646154 104.847692,5.88461538 C106.919077,5.04184615 108.103385,2.04646154 106.249846,0 C106.794462,2.41384615 103.677231,2.62338462 101.229231,3.07476923 C96.6323077,3.92584615 95.88,8.12030769 97.9689231,10.26 C97.7289231,7.72246154 99.7818462,6.20861538 102.339692,6.23353846" id="Fill-25" fill="#FFFFFF"></path>
                            <g id="Group-42" transform="translate(84.923077, 9.230769)" fill="#FFFFFF">
                                <path d="M9.34707692,3.25661538 C9.34707692,3.25661538 9.71169231,4.09292308 9.71169231,4.92 L20.3252308,4.92 C20.3270769,4.08276923 20.6953846,3.25661538 20.6953846,3.25661538 L15.6507692,3.25384615 C16.3329231,2.14338462 17.9769231,0.331384615 21.4476923,0.335071289 C25.2323077,0.337846154 29.4526154,3.35076923 29.4720677,8.7 C29.4996923,16.6892308 21.0221538,22.3993846 14.9963077,26.1323077 C9.05907692,22.3993846 0.54,16.6892308 0.568543485,8.7 C0.588,3.35076923 4.81107692,0.337846154 8.58923077,0.335071289 C12.0646154,0.331384615 13.7067692,2.14338462 14.3889231,3.25384615 L9.34707692,3.25661538 Z M16.2821538,11.4950769 C16.4353846,9.38492308 16.488,7.46584615 16.9587692,6.07107692 L13.08,6.07107692 C13.548,7.46584615 13.5987692,9.38492308 13.7529231,11.4950769 C13.9458462,14.1018462 14.4212308,21.5704615 14.4212308,21.5704615 L15.612,21.5704615 C15.612,21.5704615 16.092,14.1018462 16.2821538,11.4950769 L16.2821538,11.4950769 Z" id="Fill-41"></path>
                            </g>
                        </g>
                    </g>
                </g>
            </g>
        </g>
    </g>
</svg>