<?xml version="1.0" encoding="UTF-8"?>
<svg width="131px" height="36px" viewBox="0 0 131 36" version="1.1" xmlns="http://www.w3.org/2000/svg" xmlns:xlink="http://www.w3.org/1999/xlink">
    <title>Belkin</title>
    <g id="Home-page" stroke="none" stroke-width="1" fill="none" fill-rule="evenodd">
        <g id="Desktop" transform="translate(-327.000000, -2904.000000)" fill="#FFFFFF" fill-rule="nonzero">
            <g id="Clients" transform="translate(44.000000, 2784.000000)">
                <g id="logos" transform="translate(0.000000, 72.000000)">
                    <g id="Belkin" transform="translate(240.000000, 0.000000)">
                        <g id="belkin-logo" transform="translate(43.000000, 48.000000)">
                            <path d="M124.568151,23.757283 L124.568151,32.4081509 L120.394868,32.4081509 L120.394868,23.757283 C120.394868,21.4098113 119.481962,20.018717 117.199698,20.018717 C114.917434,20.018717 114.004528,21.4315472 114.004528,23.757283 L114.004528,32.4081509 L109.831245,32.4081509 L109.831245,23.757283 C109.831245,18.9101887 112.287396,16.1497358 117.221434,16.1497358 C122.112,16.1497358 124.568151,18.866717 124.568151,23.757283" id="Path"></path>
                            <rect id="Rectangle" x="79.7053585" y="10.6940377" width="4.17328302" height="21.7358491"></rect>
                            <polygon id="Path" points="101.354264 16.7148679 96.5506415 16.7148679 90.9210566 23.6703396 90.9210566 10.7157736 86.7477736 10.7157736 86.7477736 32.4298868 90.9210566 32.4298868 90.9210566 24.909283 96.5506415 32.4298868 101.63683 32.4298868 95.1378113 23.9746415"></polygon>
                            <rect id="Rectangle" x="103.223547" y="16.7148679" width="4.17328302" height="15.7367547"></rect>
                            <path d="M16.6061887,7.34671698 C18.6493585,7.34671698 20.2795472,5.69479245 20.2795472,3.67335849 C20.2795472,1.65192453 18.6493585,0 16.6061887,0 C14.5847547,0 12.9328302,1.65192453 12.9328302,3.67335849 C12.9328302,5.7165283 14.5847547,7.34671698 16.6061887,7.34671698" id="Path"></path>
                            <path d="M13.3458113,11.0200755 C11.9981887,11.0200755 10.8896604,12.1286038 10.8896604,13.4762264 C10.8896604,14.8238491 11.9764528,15.9323774 13.3458113,15.9323774 C14.693434,15.9323774 15.8019623,14.8455849 15.8019623,13.4762264 C15.8019623,12.1286038 14.693434,11.0200755 13.3458113,11.0200755" id="Path"></path>
                            <path d="M2.45615094,9.93328302 C1.08679245,9.93328302 0,11.0418113 0,12.389434 C0,13.7370566 1.08679245,14.8455849 2.45615094,14.8455849 C3.82550943,14.8455849 4.91230189,13.7370566 4.91230189,12.389434 C4.89056604,11.0418113 3.80377358,9.93328302 2.45615094,9.93328302" id="Path"></path>
                            <path d="M17.4321509,13.4762264 C17.4321509,14.8238491 18.5189434,15.9323774 19.8883019,15.9323774 C21.2359245,15.9323774 22.3444528,14.8455849 22.3444528,13.4762264 C22.3444528,12.1286038 21.2576604,11.0200755 19.8883019,11.0200755 C18.5189434,11.0200755 17.4321509,12.1286038 17.4321509,13.4762264" id="Path"></path>
                            <path d="M30.7779623,9.93328302 C29.4303396,9.93328302 28.3218113,11.0200755 28.3218113,12.389434 C28.3218113,13.7370566 29.4086038,14.8455849 30.7779623,14.8455849 C32.1255849,14.8455849 33.2341132,13.7370566 33.2341132,12.389434 C33.2341132,11.0418113 32.1255849,9.93328302 30.7779623,9.93328302" id="Path"></path>
                            <path d="M13.3458113,17.562566 C11.9981887,17.562566 10.8896604,18.6710943 10.8896604,20.018717 C10.8896604,21.3663396 11.9764528,22.4748679 13.3458113,22.4748679 C14.693434,22.4748679 15.8019623,21.3663396 15.8019623,20.018717 C15.8019623,18.6710943 14.693434,17.562566 13.3458113,17.562566" id="Path"></path>
                            <path d="M22.322717,20.018717 C22.322717,18.6710943 21.2359245,17.562566 19.866566,17.562566 C18.5189434,17.562566 17.4104151,18.6710943 17.4104151,20.018717 C17.4104151,21.3663396 18.4972075,22.4748679 19.866566,22.4748679 C21.2359245,22.4748679 22.322717,21.3663396 22.322717,20.018717" id="Path"></path>
                            <path d="M10.085434,30.6475472 C8.73781132,30.6475472 7.62928302,31.7560755 7.62928302,33.1036981 C7.62928302,34.4513208 8.73781132,35.5598491 10.085434,35.5598491 C11.4330566,35.5598491 12.5415849,34.4730566 12.5415849,33.1036981 C12.5198491,31.7343396 11.4330566,30.6475472 10.085434,30.6475472" id="Path"></path>
                            <path d="M23.1486792,30.6475472 C21.8010566,30.6475472 20.6925283,31.7560755 20.6925283,33.1036981 C20.6925283,34.4513208 21.8010566,35.5598491 23.1486792,35.5598491 C24.4963019,35.5598491 25.6048302,34.4730566 25.6048302,33.1036981 C25.6048302,31.7343396 24.4963019,30.6475472 23.1486792,30.6475472" id="Path"></path>
                            <path d="M105.310189,9.91154717 C103.984302,9.91154717 102.897509,10.9983396 102.897509,12.3242264 C102.897509,13.6501132 103.984302,14.7369057 105.310189,14.7369057 C106.636075,14.7369057 107.722868,13.6501132 107.722868,12.3242264 C107.722868,10.9983396 106.636075,9.91154717 105.310189,9.91154717" id="Path"></path>
                            <path d="M105.310189,9.91154717 C103.984302,9.91154717 102.897509,10.9983396 102.897509,12.3242264 C102.897509,13.6501132 103.984302,14.7369057 105.310189,14.7369057 C106.636075,14.7369057 107.722868,13.6501132 107.722868,12.3242264 C107.722868,10.9983396 106.636075,9.91154717 105.310189,9.91154717" id="Path"></path>
                            <polygon id="Path" points="128.111094 30.821434 127.502491 30.821434 127.502491 32.4298868 127.198189 32.4298868 127.198189 30.821434 126.589585 30.821434 126.589585 30.5388679 128.111094 30.5388679"></polygon>
                            <polygon id="Path" points="130.415094 30.5388679 130.045585 30.5388679 129.393509 31.9516981 129.371774 31.9516981 128.741434 30.5388679 128.371925 30.5388679 128.371925 32.4298868 128.654491 32.4298868 128.654491 31.0605283 128.676226 31.0605283 129.28483 32.4298868 129.458717 32.4298868 130.089057 31.0605283 130.110792 31.0605283 130.110792 32.4298868 130.415094 32.4298868"></polygon>
                            <path d="M52.2529811,16.1714717 C49.9489811,16.1714717 48.2101132,17.2147925 47.3406792,18.3233208 L47.3406792,10.4984151 L42.9935094,10.4984151 L42.9935094,24.4528302 C42.9935094,29.4086038 46.4495094,32.8646038 51.3618113,32.8646038 C56.2741132,32.8646038 59.7518491,29.4303396 59.7518491,24.5180377 C59.7518491,19.5405283 56.7523019,16.1714717 52.2529811,16.1714717 Z M51.3835472,28.9956226 C49.0143396,28.9956226 47.2102642,27.0611321 47.2102642,24.5180377 C47.2102642,21.9749434 49.0143396,20.0404528 51.3835472,20.0404528 C53.7527547,20.0404528 55.5350943,21.9749434 55.5350943,24.5180377 C55.5568302,27.0828679 53.7527547,28.9956226 51.3835472,28.9956226 Z" id="Shape"></path>
                            <path d="M77.5100377,24.7571321 C77.5100377,19.3449057 74.5539623,16.1497358 69.5981887,16.1497358 C64.9032453,16.1497358 61.3603019,19.8013585 61.3603019,24.6484528 C61.3603019,29.5607547 64.7510943,32.8646038 69.837283,32.8646038 C72.8368302,32.8646038 74.9017358,31.7560755 76.1189434,30.7779623 L73.9888302,27.8870943 C72.8368302,28.8869434 71.4674717,29.2999245 69.8155472,29.2999245 C67.5767547,29.2999245 65.7726792,27.8870943 65.5553208,25.9308679 L77.4448302,25.9308679 C77.4883019,25.7135094 77.5100377,25.1049057 77.5100377,24.7571321 Z M65.5987925,23.1052075 C65.8813585,21.1489811 67.2072453,19.6274717 69.4677736,19.6274717 C71.7500377,19.6274717 73.010717,21.1489811 73.293283,23.1052075 L65.5987925,23.1052075 Z" id="Shape"></path>
                        </g>
                    </g>
                </g>
            </g>
        </g>
    </g>
</svg>