<?xml version="1.0" encoding="UTF-8"?>
<svg width="168px" height="34px" viewBox="0 0 168 34" version="1.1" xmlns="http://www.w3.org/2000/svg" xmlns:xlink="http://www.w3.org/1999/xlink">
    <title>dignity_health_logo</title>
    <defs>
        <linearGradient x1="66.5862211%" y1="-11.4820858%" x2="32.8430095%" y2="94.4492964%" id="linearGradient-1">
            <stop stop-color="#FFFFFF" stop-opacity="0" offset="0%"></stop>
            <stop stop-color="#FFFFFF" stop-opacity="0.0509425621" offset="0%"></stop>
            <stop stop-color="#FFFFFF" offset="100%"></stop>
        </linearGradient>
        <linearGradient x1="36.6845025%" y1="0%" x2="70.9986919%" y2="90.9694955%" id="linearGradient-2">
            <stop stop-color="#FFFFFF" stop-opacity="0" offset="0%"></stop>
            <stop stop-color="#FFFFFF" stop-opacity="0.0509425621" offset="0%"></stop>
            <stop stop-color="#FFFFFF" offset="100%"></stop>
        </linearGradient>
        <linearGradient x1="69.6735541%" y1="71.1663645%" x2="31.5233972%" y2="76.6605778%" id="linearGradient-3">
            <stop stop-color="#FFFFFF" offset="0%"></stop>
            <stop stop-color="#FFFFFF" stop-opacity="0.0509425621" offset="100%"></stop>
            <stop stop-color="#FFFFFF" stop-opacity="0" offset="100%"></stop>
        </linearGradient>
        <linearGradient x1="97.3853067%" y1="52.198536%" x2="5.4976449%" y2="52.7692163%" id="linearGradient-4">
            <stop stop-color="#FFFFFF" offset="0%"></stop>
            <stop stop-color="#FFFFFF" stop-opacity="0.0509425621" offset="100%"></stop>
            <stop stop-color="#FFFFFF" stop-opacity="0" offset="100%"></stop>
        </linearGradient>
        <linearGradient x1="72.5678245%" y1="95.4483173%" x2="31.9646933%" y2="0%" id="linearGradient-5">
            <stop stop-color="#FFFFFF" stop-opacity="0" offset="0%"></stop>
            <stop stop-color="#FFFFFF" stop-opacity="0.0509425621" offset="0%"></stop>
            <stop stop-color="#FFFFFF" offset="100%"></stop>
        </linearGradient>
        <linearGradient x1="97.3853067%" y1="52.1976815%" x2="5.4976449%" y2="52.7681399%" id="linearGradient-6">
            <stop stop-color="#FFFFFF" stop-opacity="0" offset="0%"></stop>
            <stop stop-color="#FFFFFF" stop-opacity="0.0509425621" offset="0%"></stop>
            <stop stop-color="#FFFFFF" offset="100%"></stop>
        </linearGradient>
    </defs>
    <g id="Home-page" stroke="none" stroke-width="1" fill="none" fill-rule="evenodd">
        <g id="Desktop" transform="translate(-788.000000, -2904.000000)">
            <g id="Clients" transform="translate(44.000000, 2784.000000)">
                <g id="logos" transform="translate(0.000000, 72.000000)">
                    <g id="Dignity" transform="translate(720.000000, 0.000000)">
                        <g id="dignity_health_logo" transform="translate(24.000000, 48.000000)">
                            <g id="wordmark" transform="translate(106.924845, 20.000000) scale(1, -1) translate(-106.924845, -20.000000) translate(46.424845, 10.000000)" fill="#FFFFFF" fill-rule="nonzero">
                                <path d="M4.06042275,7.29549234 C7.56321413,7.29549234 8.89193914,9.50977623 8.89193914,12.0063562 C8.89193914,14.7836854 7.26158272,16.6166762 4.02020523,16.6166762 L2.53061013,16.6166762 L2.53061013,7.29549234 L4.06042275,7.29549234 Z M0.114465225,18.589655 L4.24217501,18.589655 C8.93215666,18.589655 11.4882895,15.9731959 11.4882895,12.0465737 C11.4882895,8.02018113 8.63052526,5.32251358 4.02020523,5.32251358 L0.114465225,5.32251358 L0.114465225,18.589655 Z" id="path2145"></path>
                                <path d="M22.4935047,11.482755 C22.4935047,12.4286401 21.8492509,13.2747549 20.7819398,13.2747549 C19.8360547,13.2747549 19.1314746,12.6506099 19.1314746,11.5036372 C19.1314746,10.5562052 19.7355109,9.73174601 20.8020486,9.73174601 C21.7688159,9.73174601 22.4935047,10.3350088 22.4935047,11.482755 M23.3790636,3.43074327 C23.3790636,4.7989124 20.4199821,4.51816316 19.1314746,5.02088217 C18.8290698,4.7989124 18.3665683,4.39673719 18.3665683,3.7725922 C18.3665683,2.82593363 19.3727798,2.243553 20.9636921,2.243553 C22.4130696,2.243553 23.3790636,2.72616325 23.3790636,3.43074327 M16.2126107,3.35030823 C16.2126107,4.39673719 16.9372995,5.22274319 17.9234022,5.64502716 C17.521227,5.88633229 17.2992572,6.32949843 17.2992572,6.83299085 C17.2992572,7.39680956 17.6619883,8.08128083 18.4470034,8.62421736 C17.4400185,9.20814482 16.8568645,10.3156735 16.8568645,11.5840722 C16.8568645,13.3350812 18.145372,15.0860902 20.7417223,15.0860902 C21.5870636,15.0860902 22.2514261,14.8850026 22.634266,14.6638062 C22.7355832,14.6235887 22.7951361,14.6436974 22.8755711,14.7040237 C23.3790636,15.2075161 24.0032085,15.5292563 25.1710635,15.5292563 C25.3922598,15.5292563 25.6745559,15.5091476 25.8153172,15.4890388 L25.3319336,13.7573652 C25.1099638,13.8184649 24.8485499,13.8586824 24.6273535,13.8586824 C24.4262659,13.8586824 24.1238611,13.8184649 23.9227735,13.6970389 C24.4858188,13.0930027 24.7681149,12.2886522 24.7681149,11.4425375 C24.7681149,9.30868862 23.1377584,7.91963733 20.8221573,7.91963733 C20.3797646,7.91963733 19.976816,7.97996361 19.6543024,8.08128083 C19.4733236,7.77887601 19.4129973,7.5777884 19.4129973,7.37592738 C19.4129973,5.66513592 25.6745559,7.25527482 25.6745559,3.69215716 C25.6745559,1.96048352 23.9428823,0.551323467 20.6411785,0.551323467 C17.8429671,0.551323467 16.2126107,1.69829622 16.2126107,3.35030823" id="path2151"></path>
                                <path d="M26.8817776,14.8450944 L28.9351914,14.8450944 L29.1772699,13.7785567 C30.1834814,14.5627984 31.2500191,15.0856261 32.4379828,15.0856261 C33.9476866,15.0856261 35.497608,14.341602 35.497608,11.6238257 L35.497608,5.32282295 L33.0822365,5.32282295 L33.0822365,10.8790281 C33.0822365,12.0468831 32.840158,12.9927682 31.6127502,12.9927682 C30.8277351,12.9927682 29.9816204,12.5704842 29.2770403,11.9865568 L29.2770403,5.32282295 L26.8817776,5.32282295 L26.8817776,14.8450944 Z" id="path2155"></path>
                                <path d="M42.8018059,7.67779081 L42.8018059,12.9725821 L41.0910144,12.9725821 L41.0910144,14.8450171 L42.8018059,14.8450171 L42.8018059,17.059301 L45.197842,17.763881 L45.197842,14.8450171 L48.0764884,14.8450171 L47.4925609,12.9725821 L45.197842,12.9725821 L45.197842,8.26171828 C45.197842,7.37538599 45.4994734,7.05441924 46.1236184,7.05441924 C46.6866637,7.05441924 47.2102649,7.27561561 47.572996,7.51692073 L48.2976848,5.86645555 C47.6132135,5.40318065 46.4662407,5.121658 45.5188088,5.121658 C43.8288995,5.121658 42.8018059,6.08765191 42.8018059,7.67779081" id="path2161"></path>
                                <path d="M49.0018781,2.84727986 C49.4450442,2.62531008 49.9075457,2.48454876 50.4319203,2.48454876 C51.498458,2.48454876 52.3437994,3.20846413 53.0885969,5.38330391 L48.8000171,14.8452491 L51.296597,14.8452491 L54.1752434,8.08097146 L54.2154609,8.08097146 L56.5318354,14.8452491 L58.9665423,14.8452491 L55.3229896,5.02057281 C53.8333945,1.05527994 52.2633643,0.551787515 50.5324641,0.551787515 C49.7466756,0.551787515 49.0420956,0.711884184 48.3978419,0.994953658 L49.0018781,2.84727986 Z" id="path2165"></path>
                                <polygon id="path2169" points="63.6839801 18.5898096 66.100125 18.5898096 66.100125 13.1132661 72.5418891 13.1132661 72.5418891 18.5898096 74.9773693 18.5898096 74.9773693 5.32266826 72.5418891 5.32266826 72.5418891 11.0606257 66.100125 11.0606257 66.100125 5.32266826 63.6839801 5.32266826"></polygon>
                                <path d="M82.5443732,11.1003792 C82.5041557,12.1877991 81.9805545,13.2543368 80.7121558,13.2543368 C79.5249655,13.2543368 78.8598296,12.2481253 78.8598296,11.1003792 L82.5443732,11.1003792 Z M76.4645669,10.074059 C76.4645669,12.9325966 78.034597,15.0857808 80.7523733,15.0857808 C83.4299321,15.0857808 84.9798535,13.153793 84.9798535,9.99285053 L84.9798535,9.42980524 L78.8799384,9.42980524 C78.9209293,7.95954548 79.9673582,7.01366033 81.5582706,7.01366033 C82.5242645,7.01366033 83.2891708,7.27507422 83.9728686,7.65868749 L84.6983308,6.0074489 C83.691346,5.38330391 82.5041557,5.12189002 81.3363008,5.12189002 C77.8536182,5.12189002 76.4645669,7.49704399 76.4645669,10.074059" id="path2173"></path>
                                <path d="M90.3546931,9.71163725 C89.7305481,9.69152849 89.2881554,9.59021127 88.9664152,9.40923243 C88.5626932,9.18803606 88.3817144,8.8051962 88.3817144,8.32181254 C88.3817144,7.49735336 88.9261977,7.01319628 89.7908744,7.01319628 C90.6772067,7.01319628 91.320687,7.45713584 91.6432006,7.71777631 L91.6432006,9.75185477 L90.3546931,9.71163725 Z M91.8450616,6.22895463 C91.1605904,5.60480964 90.2943668,5.12219939 89.1064031,5.12219939 C87.2958413,5.12219939 85.9454607,6.32949843 85.9454607,8.16171587 C85.9454607,9.44944995 86.5703791,10.2545738 87.5564818,10.7580662 C88.2208443,11.1006885 89.0468503,11.2607852 90.0128442,11.3017761 L91.6432006,11.3621024 L91.6432006,11.6645072 C91.6432006,12.7712625 90.9185118,13.2546461 89.8109832,13.2546461 C88.8643246,13.2546461 87.9996479,12.9522413 87.3144032,12.5902836 L86.5301616,14.1394316 C87.657799,14.7651234 88.8844334,15.0860902 90.2147052,15.0860902 C92.7700646,15.0860902 94.0384633,13.9190087 94.0384633,11.6242897 L94.0384633,7.75799383 C94.0384633,6.6512386 94.0794543,5.82677942 94.2202156,5.32251358 L92.2070193,5.32251358 L91.8450616,6.22895463 Z" id="path2177"></path>
                                <path d="M95.7038554,19.5761443 L98.0991181,19.5761443 L98.0991181,8.12111164 C98.0991181,7.45674913 98.360532,7.25566153 98.8036982,7.25566153 C98.9251241,7.25566153 99.2066468,7.29587905 99.4077344,7.37554068 L99.8710093,5.52476131 C99.3071906,5.28268277 98.6428281,5.18136555 98.0991181,5.18136555 C96.5097527,5.18136555 95.7038554,5.96715403 95.7038554,7.47685789 L95.7038554,19.5761443 Z" id="path2181"></path>
                                <path d="M101.343435,7.67779081 L101.343435,12.9725821 L99.6326431,12.9725821 L99.6326431,14.8450171 L101.343435,14.8450171 L101.343435,17.059301 L103.739471,17.763881 L103.739471,14.8450171 L106.618117,14.8450171 L106.03419,12.9725821 L103.739471,12.9725821 L103.739471,8.26171828 C103.739471,7.37538599 104.041102,7.05441924 104.666021,7.05441924 C105.229066,7.05441924 105.751894,7.27561561 106.114625,7.51692073 L106.839314,5.86645555 C106.154842,5.40318065 105.007869,5.121658 104.061211,5.121658 C102.370528,5.121658 101.343435,6.08765191 101.343435,7.67779081" id="path2185"></path>
                                <path d="M107.813506,19.5761443 L110.208768,19.5761443 L110.208768,13.7979694 C111.074992,14.5226582 112.160865,15.0857035 113.368937,15.0857035 C114.878641,15.0857035 116.408454,14.3416793 116.408454,11.623903 L116.408454,5.32290029 L114.012418,5.32290029 L114.012418,10.8791055 C114.012418,12.0469604 113.771886,12.9928456 112.543705,12.9928456 C111.738581,12.9928456 110.912575,12.5705616 110.208768,11.9866341 L110.208768,5.32290029 L107.813506,5.32290029 L107.813506,19.5761443 Z" id="path2189"></path>
                                <path d="M119.810933,5.32885557 L119.810933,6.43019691 L119.445882,5.70782837 L119.245568,5.70782837 L118.880517,6.43019691 L118.880517,5.32885557 L118.673242,5.32885557 L118.673242,6.85634795 L118.880517,6.85634795 L119.345338,5.92979814 L119.810933,6.85634795 L120.014341,6.85634795 L120.014341,5.32885557 L119.810933,5.32885557 Z M117.980263,6.66686156 L117.980263,5.32885557 L117.772215,5.32885557 L117.772215,6.66686156 L117.349931,6.66686156 L117.349931,6.85634795 L118.404867,6.85634795 L118.404867,6.66686156 L117.980263,6.66686156 Z" id="path2193"></path>
                                <path d="M12.9765698,14.8454038 L15.3919413,14.8454038 L15.3919413,5.32313231 L12.9765698,5.32313231 L12.9765698,14.8454038 Z M12.7143825,17.824594 C12.7143825,18.6297178 13.3385275,19.2739716 14.1838688,19.2739716 C15.0292102,19.2739716 15.6734639,18.6490532 15.6734639,17.824594 C15.6734639,17.0395789 15.0292102,16.3953252 14.1838688,16.3953252 C13.3385275,16.3953252 12.7143825,17.0186967 12.7143825,17.824594" id="path2147"></path>
                                <path d="M37.1658617,14.8454038 L39.5820066,14.8454038 L39.5820066,5.32313231 L37.1658617,5.32313231 L37.1658617,14.8454038 Z M36.9036744,17.824594 C36.9036744,18.6297178 37.5278194,19.2739716 38.3739342,19.2739716 C39.2185021,19.2739716 39.8627559,18.6490532 39.8627559,17.824594 C39.8627559,17.0395789 39.2185021,16.3953252 38.3739342,16.3953252 C37.5278194,16.3953252 36.9036744,17.0186967 36.9036744,17.824594" id="path2157"></path>
                            </g>
                            <g id="icon" transform="translate(0.859764, 0.634290)">
                                <path d="M12.2180275,31.8332562 C12.1422329,31.6050991 12.0617979,31.3444586 12.0068855,31.1132079 L12.0068855,31.1132079 C12.0053387,31.1062472 12.0030184,31.0992865 12.0014716,31.0930991 L12.0014716,31.0930991 C11.8777254,30.5594436 11.8297737,30.1178243 11.809665,29.8293409 L11.809665,29.8293409 C11.8065713,29.7875765 11.8042511,29.7489059 11.8019308,29.7133288 L11.8019308,29.7133288 C11.9635743,29.6344406 12.1259912,29.5485917 12.2814474,29.4588757 L12.2814474,29.4588757 C13.4493023,28.7852322 14.3789458,27.8339331 15.0201059,26.7264045 L15.0201059,26.7264045 C15.7633566,25.4417641 16.119127,23.9475285 16.0093022,22.4339575 L16.0093022,22.4339575 C16.1895077,22.3465618 16.3735802,22.2661267 16.5630666,22.1926524 L16.5630666,22.1926524 C16.8306677,22.0897884 17.1060031,22.0000724 17.3890726,21.9273715 L17.3890726,21.9273715 C17.7966617,21.8221872 18.2150786,21.7518065 18.6358157,21.7162295 L18.6358157,21.7162295 C18.6891813,22.1385135 18.7154773,22.5615708 18.7154773,22.9815346 L18.7154773,22.9815346 C18.7131571,26.5438788 16.8283475,29.936072 13.6256407,31.7853046 L13.6256407,31.7853046 C13.2342933,32.010368 12.8305713,32.2106822 12.415248,32.3823801 L12.415248,32.3823801 C12.3819912,32.2934375 12.3023296,32.0822955 12.2180275,31.8332562" id="path2249" fill="url(#linearGradient-1)"></path>
                                <path d="M26.094619,32.3653649 C25.6924438,32.1975341 25.3018698,32.0034073 24.922897,31.7853046 L24.922897,31.7853046 C21.3419908,29.7179693 19.4084561,25.7232867 19.912722,21.7162295 L19.912722,21.7162295 C20.3334591,21.7518065 20.7511026,21.8221872 21.1594651,21.9273715 L21.1594651,21.9273715 C21.3899425,21.9861509 21.6157793,22.0565316 21.8362023,22.1369666 L21.8362023,22.1369666 C22.0775074,22.2243624 22.3118518,22.3233594 22.5392355,22.4339575 L22.5392355,22.4339575 C22.4031146,24.2994318 22.9754409,26.1378365 24.110039,27.5887609 L24.110039,27.5887609 C24.689326,28.3281446 25.4140148,28.9669844 26.2670903,29.4588757 L26.2670903,29.4588757 C26.421773,29.5485917 26.58419,29.6344406 26.7458335,29.7133288 L26.7458335,29.7133288 C26.7458335,29.7148756 26.7458335,29.7156491 26.7458335,29.7171959 L26.7458335,29.7171959 C26.7295918,29.9963983 26.687054,30.4882895 26.5455193,31.098513 L26.5455193,31.098513 C26.5439724,31.1031535 26.5424256,31.1085674 26.5416522,31.1132079 L26.5416522,31.1132079 C26.4867398,31.341365 26.408625,31.5981384 26.3328305,31.8239752 L26.3328305,31.8239752 C26.2477549,32.0768816 26.1665465,32.2918906 26.1332897,32.3823801 L26.1332897,32.3823801 C26.1201416,32.3769662 26.107767,32.3707788 26.094619,32.3653649" id="path2311" fill="url(#linearGradient-2)"></path>
                                <path d="M27.4333984,32.8185855 C26.9871386,32.7010266 26.1309694,32.3823801 26.1309694,32.3823801 L26.1309694,32.3823801 C26.1309694,32.3823801 26.4240933,31.6143801 26.5416522,31.1155281 L26.5416522,31.1155281 C26.6947881,30.4604466 26.7605283,29.8455826 26.7605283,29.1750328 L26.7605283,29.1750328 C26.7605283,25.7619574 24.4542082,22.7827672 21.1586917,21.9265981 L21.1586917,21.9265981 C20.5484682,21.769595 19.9096283,21.6899334 19.2746556,21.6899334 L19.2746556,21.6899334 C18.6396828,21.6899334 18.0023897,21.769595 17.3890726,21.9265981 L17.3890726,21.9265981 C14.089689,22.7827672 11.7864625,25.7619574 11.7864625,29.1750328 L11.7864625,29.1750328 C11.7864625,29.8455826 11.854523,30.4604466 12.0068855,31.1155281 L12.0068855,31.1155281 C12.1228976,31.6143801 12.415248,32.3823801 12.415248,32.3823801 L12.415248,32.3823801 C12.415248,32.3823801 11.5598523,32.7010266 11.1135925,32.8185855 L11.1135925,32.8185855 C10.4005049,33.0127123 9.66189466,32.5912018 9.46699437,31.8773408 L9.46699437,31.8773408 C9.223369,30.9941022 9.10271644,30.0876611 9.10271644,29.1750328 L9.10271644,29.1750328 C9.10271644,24.5399635 12.2311755,20.4895951 16.7154291,19.3279275 L16.7154291,19.3279275 C17.5476224,19.1105982 18.4099789,19 19.2746556,19 L19.2746556,19 C20.1401057,19 21.0024621,19.1105982 21.8323352,19.3279275 L21.8323352,19.3279275 C26.3165888,20.4895951 29.4489149,24.5399635 29.4489149,29.1750328 L29.4489149,29.1750328 C29.4489149,30.0876611 29.3236219,30.9941022 29.0823167,31.8773408 L29.0823167,31.8773408 C28.918353,32.4736429 28.3754165,32.8658484 27.7860751,32.8658484 L27.7860751,32.8658484 C27.6692896,32.8658484 27.5509573,32.8510689 27.4333984,32.8185855" id="path2577" fill="#FFFFFF"></path>
                                <path d="M22.8223049,12.6997707 C22.8091569,12.6564595 22.7967823,12.6123749 22.7844077,12.5682903 L22.7844077,12.5682903 C22.6513805,12.0872269 22.5686252,11.6022964 22.5330482,11.1189127 L22.5330482,11.1189127 C25.0768063,9.88763788 26.7566613,7.29051413 26.7527942,4.37938436 L26.7527942,4.37938436 C26.7527942,4.37319704 26.7527942,4.36778315 26.7527942,4.36159584 L26.7527942,4.36159584 C26.7527942,4.18835113 26.7466069,4.01046594 26.7342322,3.83722124 L26.7342322,3.83722124 C26.9268123,3.74054451 27.1193924,3.65160191 27.3173863,3.57116687 L27.3173863,3.57116687 C27.5177005,3.48995841 27.7512715,3.40488289 28.0150056,3.32290102 L28.0150056,3.32290102 C28.0150056,3.32290102 28.0150056,3.32290102 28.015779,3.32290102 L28.015779,3.32290102 C28.0173258,3.32290102 28.0204195,3.32212761 28.0235132,3.32135419 L28.0235132,3.32135419 C28.0266068,3.31980736 28.0304739,3.31826054 28.0335675,3.31748712 L28.0335675,3.31748712 C28.034341,3.31748712 28.0351144,3.31671371 28.0358878,3.31671371 L28.0358878,3.31671371 C28.0405283,3.3159403 28.0451687,3.31439347 28.0505826,3.31284664 L28.0505826,3.31284664 C28.0521295,3.31207323 28.0536763,3.31129981 28.0552231,3.31129981 L28.0552231,3.31129981 C28.0559965,3.3105264 28.0575434,3.3105264 28.0583168,3.3105264 L28.0583168,3.3105264 C28.0590902,3.30975298 28.0590902,3.30975298 28.0590902,3.30975298 L28.0590902,3.30975298 C28.5424739,3.16512459 29.3251687,3.03828472 29.3522382,3.03364424 L29.3522382,3.03364424 C29.4102442,3.47913062 29.4396339,3.92848407 29.4396339,4.37938436 L29.4396339,4.37938436 C29.4396339,8.51328145 26.9469211,12.1854505 23.226027,13.7523869 L23.226027,13.7523869 C23.0651569,13.4120848 22.9298095,13.0601815 22.8223049,12.6997707" id="path2375" fill="url(#linearGradient-3)"></path>
                                <path d="M22.7550179,17.716133 C22.1509817,17.1028158 21.6250603,16.4113838 21.1927219,15.6634926 L21.1927219,15.6634926 C20.7596102,14.9132812 20.4231751,14.111251 20.1965649,13.2844716 L20.1965649,13.2844716 C18.9614229,8.81955334 20.9026917,4.08239343 24.9159363,1.76447209 L24.9159363,1.76447209 C25.7063652,1.30893132 26.5555736,0.963988742 27.4403591,0.730417755 L27.4403591,0.730417755 C27.5532775,0.701028029 27.6677428,0.687106579 27.7798878,0.687106579 L27.7798878,0.687106579 C28.3754165,0.687106579 28.9214467,1.08618813 29.0792231,1.68867753 L29.0792231,1.68867753 C29.2006491,2.1333905 29.3530116,3.03364424 29.3530116,3.03364424 L29.3530116,3.03364424 L29.3522382,3.03364424 C29.3251687,3.03828472 28.5424739,3.16512459 28.0590902,3.30975298 L28.0590902,3.30975298 C28.0590902,3.30975298 28.0590902,3.30975298 28.0583168,3.3105264 L28.0583168,3.3105264 C28.0575434,3.3105264 28.0559965,3.3105264 28.0552231,3.31129981 L28.0552231,3.31129981 C28.0536763,3.31129981 28.0521295,3.31207323 28.0505826,3.31284664 L28.0505826,3.31284664 C28.0451687,3.31439347 28.0405283,3.3159403 28.0358878,3.31671371 L28.0358878,3.31671371 C28.0351144,3.31671371 28.034341,3.31748712 28.0335675,3.31748712 L28.0335675,3.31748712 C28.0304739,3.31826054 28.0266068,3.31980736 28.0235132,3.32135419 L28.0235132,3.32135419 C28.0204195,3.32212761 28.0173258,3.32290102 28.015779,3.32290102 L28.015779,3.32290102 C28.0150056,3.32290102 28.0150056,3.32290102 28.0150056,3.32290102 L28.0150056,3.32290102 C27.7737005,3.39792216 27.5424497,3.47990403 27.3173863,3.57116687 L27.3173863,3.57116687 C27.1193924,3.65160191 26.9268123,3.74054451 26.7342322,3.83722124 L26.7342322,3.83722124 C26.5764558,3.91610945 26.4186794,4.00118498 26.2601296,4.09322123 L26.2601296,4.09322123 C23.7380269,5.54955953 22.3288669,8.30213946 22.5330482,11.1189127 L22.5330482,11.1189127 C22.5686252,11.6022964 22.6513805,12.0872269 22.7844077,12.5682903 L22.7844077,12.5682903 C22.7967823,12.6123749 22.8091569,12.6564595 22.8223049,12.6997707 L22.8223049,12.6997707 C22.9893623,13.2612691 23.2268004,13.8080727 23.5214711,14.3192993 L23.5214711,14.3192993 C23.6939424,14.6170636 23.885749,14.9040002 24.096891,15.1762419 L24.096891,15.1762419 C24.0976644,15.1777887 24.0984378,15.1777887 24.0992112,15.1793355 L24.0992112,15.1793355 C24.1023049,15.1832026 24.1046251,15.1855228 24.1069454,15.1886165 L24.1069454,15.1886165 C24.1084922,15.1909367 24.110039,15.1924836 24.1115858,15.1948038 L24.1115858,15.1948038 C24.1115858,15.1955772 24.1123593,15.197124 24.1131327,15.1978975 L24.1131327,15.1978975 C24.1185466,15.2048582 24.1247339,15.2118189 24.1301478,15.2187796 L24.1301478,15.2187796 C24.298752,15.4337887 24.4789574,15.6387434 24.6684438,15.8328702 L24.6684438,15.8328702 C25.0188003,16.1886406 25.3977731,16.5034201 25.7984015,16.7748883 L25.7984015,16.7748883 C27.0513319,17.626417 28.5200449,18.0657161 30.0019058,18.0657161 L30.0019058,18.0657161 C31.2849994,18.0657161 32.5758271,17.7362417 33.7467757,17.060278 L33.7467757,17.060278 C33.906099,16.9690152 34.0584615,16.8754321 34.2054102,16.777982 L34.2054102,16.777982 C34.4413014,16.6232992 34.8550778,16.3386829 35.3168059,15.9009307 L35.3168059,15.9009307 C35.3322742,15.8870092 35.3477424,15.8715409 35.3632107,15.8560727 L35.3632107,15.8560727 C35.3701714,15.8498853 35.3771322,15.843698 35.3833195,15.8367373 L35.3833195,15.8367373 C35.4297243,15.7918793 35.4769025,15.7439276 35.5248542,15.6936557 L35.5248542,15.6936557 C35.8257122,15.3811965 36.1172892,15.0292932 36.2108723,14.9132812 L36.2108723,14.9132812 L36.2100989,14.9125077 C36.2108723,14.9125077 36.2108723,14.9125077 36.2108723,14.9125077 L36.2108723,14.9125077 C36.2108723,14.9125077 36.9146789,15.4933416 37.2395127,15.8220424 L37.2395127,15.8220424 C37.7638873,16.3417766 37.7685278,17.1925318 37.2480203,17.7176798 L37.2480203,17.7176798 C36.6053134,18.3704411 35.8798512,18.9296193 35.0894222,19.3859335 L35.0894222,19.3859335 C33.5000567,20.3032024 31.7444072,20.7502356 30.0019058,20.7502356 L30.0019058,20.7502356 C27.3444558,20.7502356 24.7179423,19.7099939 22.7550179,17.716133" id="path2529" fill="#FFFFFF"></path>
                                <path d="M33.7460023,16.4910454 C32.5758271,15.8135349 31.284226,15.4840606 30.0019058,15.4840606 L30.0019058,15.4840606 C28.5973862,15.4840606 27.2044679,15.8800485 25.995622,16.6457282 L25.995622,16.6457282 C25.9925284,16.6480484 25.9894347,16.6503687 25.9855676,16.6519155 L25.9855676,16.6519155 C25.9569513,16.6704774 25.928335,16.688266 25.9004921,16.7076013 L25.9004921,16.7076013 C25.8664619,16.7292569 25.8316583,16.7516859 25.7984015,16.7748883 L25.7984015,16.7748883 C25.6529997,16.6766648 25.5106915,16.5714805 25.371477,16.4624291 L25.371477,16.4624291 C25.3707036,16.4616557 25.3707036,16.4616557 25.3699302,16.4608823 L25.3699302,16.4608823 C25.36761,16.4593355 25.3652897,16.4577886 25.3629695,16.4554684 L25.3629695,16.4554684 C25.3621961,16.454695 25.3606492,16.4539216 25.3598758,16.4531482 L25.3598758,16.4531482 C25.358329,16.4516013 25.3567822,16.4508279 25.3544619,16.4485077 L25.3544619,16.4485077 C25.3529151,16.4477343 25.3513683,16.4469608 25.3505949,16.445414 L25.3505949,16.445414 C25.349048,16.4446406 25.3467278,16.4430938 25.345181,16.4415469 L25.345181,16.4415469 C25.3436341,16.4407735 25.3428607,16.4392267 25.3413139,16.4376799 L25.3413139,16.4376799 C25.3397671,16.4369065 25.3382202,16.436133 25.3366734,16.4345862 L25.3366734,16.4345862 C25.3351266,16.4338128 25.3335797,16.4314926 25.3312595,16.4307192 L25.3312595,16.4307192 C25.3304861,16.4299457 25.3297127,16.4291723 25.3281658,16.4283989 L25.3281658,16.4283989 C25.3258456,16.4260787 25.3242988,16.4245318 25.322752,16.422985 L25.322752,16.422985 C25.3219785,16.422985 25.3204317,16.4222116 25.3196583,16.4214382 L25.3196583,16.4214382 C25.3173381,16.4191179 25.3157912,16.4175711 25.313471,16.4160243 L25.313471,16.4160243 C25.3119242,16.4152509 25.3111507,16.4144775 25.3103773,16.413704 L25.3103773,16.413704 C25.3088305,16.4121572 25.3065103,16.409837 25.30419,16.4090636 L25.30419,16.4090636 C25.3034166,16.4082901 25.3026432,16.4075167 25.3018698,16.4075167 L25.3018698,16.4075167 C25.2995495,16.4051965 25.2972293,16.4028763 25.2949091,16.4013294 L25.2949091,16.4013294 L25.2941356,16.400556 C25.2616523,16.3742599 25.2299423,16.3479639 25.1982323,16.3208944 L25.1982323,16.3208944 L25.1974589,16.320121 C25.1951387,16.3185741 25.1928184,16.3170273 25.1904982,16.3147071 L25.1904982,16.3147071 C25.1897248,16.3139337 25.1889514,16.3131602 25.1881779,16.3123868 L25.1881779,16.3123868 C25.1858577,16.3116134 25.1835375,16.3100666 25.1819906,16.3077463 L25.1819906,16.3077463 C25.1812172,16.3069729 25.1796704,16.3061995 25.178897,16.3054261 L25.178897,16.3054261 C25.1773501,16.3038793 25.1758033,16.3031059 25.1742565,16.301559 L25.1742565,16.301559 C25.1727097,16.3000122 25.1711628,16.2984654 25.1703894,16.297692 L25.1703894,16.297692 C25.1688426,16.2969186 25.1672958,16.2953717 25.1665224,16.2945983 L25.1665224,16.2945983 C25.1642021,16.2930515 25.1626553,16.2915047 25.160335,16.2899578 L25.160335,16.2899578 C25.1595616,16.2891844 25.1587882,16.288411 25.1580148,16.2876376 L25.1580148,16.2876376 C25.156468,16.2853173 25.1533743,16.2837705 25.1510541,16.2822237 L25.1510541,16.2822237 C25.1502807,16.2814503 25.1495072,16.2806769 25.1487338,16.2799034 L25.1487338,16.2799034 C25.1464136,16.2775832 25.1440933,16.2760364 25.1417731,16.2744896 L25.1417731,16.2744896 C25.1417731,16.2737161 25.1409997,16.2729427 25.1409997,16.2721693 L25.1409997,16.2721693 C25.137906,16.2698491 25.1355858,16.2683022 25.1332656,16.265982 L25.1332656,16.265982 C25.1324921,16.265982 25.1324921,16.2652086 25.1317187,16.2652086 L25.1317187,16.2652086 C25.1286251,16.2628883 25.1263048,16.2605681 25.1239846,16.2582479 L25.1239846,16.2582479 C25.1232112,16.2582479 25.1232112,16.2582479 25.1232112,16.2574744 L25.1232112,16.2574744 C25.1208909,16.2559276 25.1177973,16.252834 25.1147036,16.2505137 L25.1147036,16.2505137 C25.1147036,16.2497403 25.1147036,16.2497403 25.1147036,16.2497403 L25.1147036,16.2497403 C24.9615677,16.11826 24.8130722,15.9790455 24.6684438,15.8328702 L24.6684438,15.8328702 C24.6645768,15.8282298 24.6607097,15.8243627 24.6560692,15.8197222 L24.6560692,15.8197222 C24.6552958,15.8189488 24.6545224,15.8181754 24.653749,15.817402 L24.653749,15.817402 C24.6498819,15.8135349 24.6460148,15.8096678 24.6421478,15.8058008 L24.6421478,15.8058008 C24.6413743,15.8050273 24.6413743,15.8042539 24.6413743,15.8042539 L24.6413743,15.8042539 C24.3575315,15.5119035 24.0976644,15.1940304 23.86332,14.8583688 L23.86332,14.8583688 C25.6537731,13.5010274 27.8177851,12.7995411 30.0019058,12.7987677 L30.0019058,12.7987677 C31.7444072,12.7987677 33.4992833,13.2458009 35.0886488,14.1630697 L35.0886488,14.1630697 C35.4792228,14.38968 35.8543285,14.6394926 36.2100989,14.9125077 L36.2100989,14.9125077 C36.1938572,14.9341633 36.1706548,14.9620062 36.1420385,14.9960364 L36.1420385,14.9960364 C36.0237061,15.1383446 35.769253,15.4392026 35.5248542,15.6936557 L35.5248542,15.6936557 C35.4714886,15.7477947 35.4196699,15.8019337 35.3678512,15.8522056 L35.3678512,15.8522056 C35.3508361,15.8684473 35.3345944,15.884689 35.3183527,15.9001572 L35.3183527,15.9001572 C34.9610355,16.2334986 34.6006246,16.5181149 34.2054102,16.777982 L34.2054102,16.777982 C34.0576881,16.6766648 33.9006851,16.5792146 33.7460023,16.4910454" id="path2605" fill="url(#linearGradient-4)"></path>
                                <path d="M9.10503668,4.3817046 C9.10503668,3.9578738 9.12978593,3.53713666 9.18160465,3.11871976 L9.18160465,3.11871976 C9.18547172,3.09010345 9.18856538,3.06226055 9.19320586,3.03441765 L9.19320586,3.03441765 C9.28678894,3.05065934 9.5133992,3.08778321 9.77326626,3.14114876 L9.77326626,3.14114876 C10.0076107,3.18832701 10.269798,3.24787988 10.4956348,3.3159403 L10.4956348,3.3159403 C10.516517,3.32135419 10.5373992,3.3275415 10.5575079,3.33372881 L10.5575079,3.33372881 C11.0741484,3.4945989 11.4732299,3.67248409 11.7253628,3.7962303 L11.7253628,3.7962303 C11.7562994,3.81092517 11.7841423,3.82484662 11.809665,3.83799465 L11.809665,3.83799465 C11.7980637,4.0081457 11.7918764,4.18216382 11.7918764,4.35231487 L11.7918764,4.35231487 L11.7918764,4.36236925 L11.7918764,4.36391608 C11.7918764,4.36932998 11.7918764,4.37551729 11.7918764,4.3817046 L11.7918764,4.3817046 C11.7903296,5.69728158 12.1321785,6.9486652 12.7424021,8.03840534 L12.7424021,8.03840534 C13.4825591,9.36094304 14.6171573,10.4460427 16.0108491,11.121233 L16.0108491,11.121233 C15.975272,11.6038432 15.8932901,12.0887737 15.760263,12.5698372 L15.760263,12.5698372 C15.6473445,12.9758794 15.4988491,13.3726407 15.3186436,13.7554806 L15.3186436,13.7554806 C11.5969761,12.1877707 9.10503668,8.51560169 9.10503668,4.3817046" id="path2437" fill="url(#linearGradient-5)"></path>
                                <path d="M3.22631792,15.9009307 C3.22245085,15.8970636 3.21703695,15.8931965 3.21316988,15.8893294 L3.21316988,15.8893294 C3.0468859,15.7300062 2.86977413,15.5397464 2.71663818,15.3657283 L2.71663818,15.3657283 C2.54107324,15.1661875 2.3941246,14.9890757 2.33379832,14.914828 L2.33379832,14.914828 C2.69034211,14.6410395 3.06467442,14.3904534 3.45602184,14.1653899 L3.45602184,14.1653899 C5.04461391,13.2481211 6.80026337,12.8010879 8.54199139,12.8010879 L8.54199139,12.8010879 C10.7268856,12.8010879 12.8908975,13.5033477 14.6805772,14.8599156 L14.6805772,14.8599156 C14.4392721,15.2071784 14.1701241,15.5335591 13.8754534,15.8351905 L13.8754534,15.8351905 C13.7315984,15.9805923 13.5831029,16.1198068 13.4307404,16.2512871 L13.4307404,16.2512871 C13.2110909,16.4415469 12.9821604,16.6171119 12.7454957,16.7772086 L12.7454957,16.7772086 C12.4446377,16.5722539 12.1314051,16.3920485 11.8081181,16.2350454 L11.8081181,16.2350454 C10.7864384,15.740834 9.66808197,15.4863808 8.54121798,15.4863808 L8.54121798,15.4863808 C7.25967121,15.4863808 5.96807006,15.8158551 4.79944171,16.4925923 L4.79944171,16.4925923 C4.64321211,16.5815349 4.48698251,16.678985 4.33771364,16.7795288 L4.33771364,16.7795288 C4.10182241,16.6256194 3.69113965,16.3386829 3.22631792,15.9009307" id="path2499" fill="url(#linearGradient-6)"></path>
                                <path d="M3.45292818,19.3898006 C2.66404604,18.9342598 1.94013067,18.3712145 1.29587692,17.7207735 L1.29587692,17.7207735 C0.776142804,17.1940786 0.780009874,16.3433234 1.30515789,15.8228159 L1.30515789,15.8228159 C1.62999171,15.4948884 2.33379832,14.9132812 2.33379832,14.9132812 L2.33379832,14.9132812 C2.33379832,14.9132812 2.85353244,15.5513476 3.22631792,15.9009307 L3.22631792,15.9009307 C3.71743572,16.3618853 4.21628766,16.7261632 4.79789489,17.0618249 L4.79789489,17.0618249 C7.75310925,18.7687493 11.486378,18.2613898 13.8754534,15.8344171 L13.8754534,15.8344171 C14.3170727,15.385837 14.7053265,14.8715168 15.0224261,14.3216195 L15.0224261,14.3216195 C15.3410727,13.7709489 15.5901119,13.1792873 15.760263,12.5698372 L15.760263,12.5698372 C16.6690243,9.28514848 15.2397554,5.80091903 12.2845411,4.09476805 L12.2845411,4.09476805 C11.7029338,3.75833302 11.1367949,3.51084059 10.4933146,3.31516688 L10.4933146,3.31516688 C10.0037436,3.16512459 9.19320586,3.03441765 9.19320586,3.03441765 L9.19320586,3.03441765 C9.19320586,3.03441765 9.34402157,2.13493733 9.46544754,1.68945094 L9.46544754,1.68945094 C9.65416052,0.974043122 10.3873569,0.545571843 11.1035381,0.733511411 L11.1035381,0.733511411 C11.9898704,0.963988742 12.8359852,1.31357181 13.6264141,1.76988599 L13.6264141,1.76988599 C17.6404321,4.08703392 19.5832477,8.82187358 18.3481057,13.285245 L18.3481057,13.285245 C18.1191752,14.115118 17.784287,14.9171482 17.3519487,15.6658128 L17.3519487,15.6658128 C16.9188369,16.4160243 16.3921421,17.1074563 15.7888793,17.7176798 L15.7888793,17.7176798 C13.8259549,19.7130876 11.1971212,20.7533292 8.53812432,20.7533292 L8.53812432,20.7533292 C6.7963963,20.7533292 5.04229367,20.3078428 3.45292818,19.3898006" id="path2553" fill="#FFFFFF"></path>
                            </g>
                        </g>
                    </g>
                </g>
            </g>
        </g>
    </g>
</svg>