<?xml version="1.0" encoding="UTF-8"?>
<svg width="36px" height="36px" viewBox="0 0 36 36" version="1.1" xmlns="http://www.w3.org/2000/svg" xmlns:xlink="http://www.w3.org/1999/xlink">
    <title>hp_logo_2012</title>
    <g id="Home-page" stroke="none" stroke-width="1" fill="none" fill-rule="evenodd">
        <g id="Desktop" transform="translate(-134.000000, -2904.000000)" fill="#FFFFFF" fill-rule="nonzero">
            <g id="Clients" transform="translate(44.000000, 2784.000000)">
                <g id="logos" transform="translate(0.000000, 72.000000)">
                    <g id="hp_logo_2012" transform="translate(90.000000, 48.000000)">
                        <path d="M35.9280004,17.9640002 C35.9280004,27.8856315 27.8856315,35.9280004 17.9640002,35.9280004 C17.6934848,35.9280004 17.4243356,35.9211692 17.1565526,35.908873 L13.4820515,25.8096306 L16.6824675,25.8096306 C18.5863223,25.8096306 19.6123682,24.3436556 18.9606719,22.5531987 L14.4281723,10.0971931 L10.6225122,10.0978762 L15.4863248,23.4487687 L12.6247362,23.4487687 L7.76092354,10.0978762 L3.95389714,10.0978762 L9.67297573,25.8096306 L9.67365885,25.8096306 L13.1138499,35.2646911 C5.54898177,33.1483861 0,26.2044738 0,17.9640002 C0,9.47896972 5.88371045,2.36837619 13.7935541,0.487747505 L17.1271785,9.64906654 L17.129911,9.64906654 L23.0108889,25.8096306 L30.0203808,25.8096306 C31.9262849,25.8096306 32.9516476,24.3436556 32.2999514,22.5531987 L28.3173632,11.6130358 C28.014058,10.7796297 27.0406124,10.0978762 26.1539229,10.0978762 L21.1015692,10.0978762 L17.4304837,0.00819743706 C17.6074117,0.00341559877 17.7857059,0 17.9640002,0 C27.8856315,0 35.9280004,8.043052 35.9280004,17.9640002" id="path3023" transform="translate(17.964000, 17.964000) scale(1, -1) translate(-17.964000, -17.964000) "></path>
                        <polyline id="path3027" transform="translate(25.393018, 18.095357) scale(1, -1) translate(-25.393018, -18.095357) " points="28.8260367 23.5907137 25.9658142 23.5907137 21.96 12.6 24.8202224 12.6 28.8260367 23.5907137"></polyline>
                    </g>
                </g>
            </g>
        </g>
    </g>
</svg>